HIERARCHY
ROOT Hips
{
	OFFSET -3.958830 18.904000 13.208200
	CHANNELS 6 Xposition Yposition Zposition Zrotation Yrotation Xrotation 
	JOINT LHipJoint
	{
		OFFSET 0.000000 0.000000 0.000000
		CHANNELS 3 Zrotation Yrotation Xrotation
		JOINT LeftUpLeg
		{
			OFFSET 1.800000 -1.400000 0.085000
			CHANNELS 3 Zrotation Yrotation Xrotation
			JOINT LeftLeg
			{
				OFFSET 2.215000 -6.000000 0.000000
				CHANNELS 3 Zrotation Yrotation Xrotation
				JOINT LeftFoot
				{
					OFFSET 2.500000 -6.900000 0.000000
					CHANNELS 3 Zrotation Yrotation Xrotation
					JOINT LeftToeBase
					{
						OFFSET 0.200000 -0.500000 1.950000
						CHANNELS 3 Zrotation Yrotation Xrotation
						End Site
						{
							OFFSET 0.000000 0.000000 0.000000
						}
					}
				}
			}
		}
	}
	JOINT RHipJoint
	{
		OFFSET 0.000000 0.000000 0.000000
		CHANNELS 3 Zrotation Yrotation Xrotation
		JOINT RightUpLeg
		{
			OFFSET -1.800000 -1.400000 0.085000
			CHANNELS 3 Zrotation Yrotation Xrotation
			JOINT RightLeg
			{
				OFFSET -2.215000 -6.000000 0.000000
				CHANNELS 3 Zrotation Yrotation Xrotation
				JOINT RightFoot
				{
					OFFSET -2.500000 -6.900000 0.000000
					CHANNELS 3 Zrotation Yrotation Xrotation
					JOINT RightToeBase
					{
						OFFSET -0.200000 -0.500000 1.950000
						CHANNELS 3 Zrotation Yrotation Xrotation
						End Site
						{
							OFFSET 0.000000 0.000000 0.000000
						}
					}
				}
			}
		}
	}
	JOINT LowerBack
	{
		OFFSET 0.000000 0.000000 0.000000
		CHANNELS 3 Zrotation Yrotation Xrotation
		JOINT Spine
		{
			OFFSET -0.087000 1.940000 -0.288900
			CHANNELS 3 Zrotation Yrotation Xrotation
			JOINT Spine1
			{
				OFFSET 0.000000 1.950000 0.060000
				CHANNELS 3 Zrotation Yrotation Xrotation
				JOINT Neck
				{
					OFFSET 0.000000 0.000000 0.000000
					CHANNELS 3 Zrotation Yrotation Xrotation
					JOINT Neck1
					{
						OFFSET 0.000000 1.600000 0.340000
						CHANNELS 3 Zrotation Yrotation Xrotation
						JOINT Head
						{
							OFFSET 0.000000 1.667000 -0.240000
							CHANNELS 3 Zrotation Yrotation Xrotation
							End Site
							{
								OFFSET 0.000000 0.000000 0.000000
							}
						}
					}
				}
				JOINT LeftShoulder
				{
					OFFSET 0.000000 0.000000 0.000000
					CHANNELS 3 Zrotation Yrotation Xrotation
					JOINT LeftArm
					{
						OFFSET 2.700000 1.550000 -0.730000
						CHANNELS 3 Zrotation Yrotation Xrotation
						JOINT LeftForeArm
						{
							OFFSET 5.450000 0.000000 0.000000
							CHANNELS 3 Zrotation Yrotation Xrotation
							JOINT LeftHand
							{
								OFFSET 3.450000 0.000000 0.000000
								CHANNELS 3 Zrotation Yrotation Xrotation
								JOINT LeftHandIndex1
								{
									OFFSET 0.750000 0.000000 0.000000
									CHANNELS 3 Zrotation Yrotation Xrotation
									End Site
									{
										OFFSET 0.000000 0.000000 0.000000
									}
								}
							}
						}
					}
				}
				JOINT RightShoulder
				{
					OFFSET 0.000000 0.000000 0.000000
					CHANNELS 3 Zrotation Yrotation Xrotation
					JOINT RightArm
					{
						OFFSET -2.700000 1.550000 -0.730000
						CHANNELS 3 Zrotation Yrotation Xrotation
						JOINT RightForeArm
						{
							OFFSET -5.450000 0.000000 0.000000
							CHANNELS 3 Zrotation Yrotation Xrotation
							JOINT RightHand
							{
								OFFSET -3.450000 0.000000 0.000000
								CHANNELS 3 Zrotation Yrotation Xrotation
								JOINT RightHandIndex1
								{
									OFFSET -0.750000 0.000000 0.000000
									CHANNELS 3 Zrotation Yrotation Xrotation
									End Site
									{
										OFFSET 0.000000 0.000000 0.000000
									}
								}
							}
						}
					}
				}
			}
		}
	}
}
MOTION
Frames: 9
Frame Time: 0.016667
3.385270 17.526160 -7.576330 -2.622766 -9.349014 -0.860699 -14.890500 13.540796 2.446581 13.967224 -2.216308 -23.866437 6.010746 3.861394 23.798732 -0.428647 3.825391 2.953163 0.501710 0.396240 0.528310 18.530550 -9.839220 4.419887 -15.388347 6.929816 -41.663821 4.452965 -15.109021 60.534756 -1.386084 -9.551291 0.880337 0.258560 -0.240330 0.134060 -4.194725 -2.867618 -8.526527 17.354137 -8.383044 24.744607 -7.440111 -3.940960 11.233703 3.580407 -2.429759 -17.056398 -10.286018 5.763479 48.056226 -5.150860 5.262560 -10.761480 -25.063277 -35.870581 8.764713 -29.340283 -37.863317 3.811774 -3.391201 -23.406255 0.662414 -3.538698 2.936898 0.364530 -0.097840 0.241380 0.000870 17.425492 36.576835 9.138208 32.845353 28.200809 2.474655 3.636608 18.684655 0.399206 2.410466 -1.174921 0.009360 0.040900 -0.150060 -0.224790 
3.357300 17.597710 -7.583760 -2.100719 -8.056972 -0.826093 -14.917489 13.440634 2.470114 13.563298 -2.428904 -23.615863 4.153855 4.385169 24.071682 -0.413143 3.927126 2.932352 0.491130 0.391400 0.509000 18.523535 -9.753740 4.492761 -13.203152 7.494531 -42.255860 4.968559 -15.170355 60.588304 -1.399037 -9.577213 0.895910 0.260100 -0.210220 0.127560 -4.164658 -2.827419 -8.541634 16.415908 -7.811107 24.484641 -6.580324 -3.624129 11.208387 3.079794 -2.561563 -16.331237 -10.334984 5.159030 47.118526 -5.097690 4.720670 -10.199230 -24.226046 -34.639991 7.661057 -28.735320 -36.041069 3.803811 -1.785840 -20.464737 0.203969 -3.617377 2.903439 0.336410 -0.076960 0.218240 0.012690 17.707812 35.250837 9.576714 34.101170 26.139642 2.967165 2.523624 14.464920 0.095013 2.473772 -1.192749 0.005140 0.054750 -0.148480 -0.211060 
3.340400 17.697710 -7.593140 -1.459014 -6.004989 -0.332907 -14.957679 13.309931 2.493206 12.740070 -2.708791 -23.018011 1.590381 5.058232 24.051492 -0.341350 4.031982 2.927576 0.455350 0.343260 0.462760 18.510310 -9.562715 4.662647 -11.268083 8.260624 -43.154782 8.020605 -16.102790 58.731263 -1.393939 -9.499465 0.946448 0.218060 -0.183250 0.123440 -4.116112 -2.843996 -8.581260 15.989266 -7.248382 24.835128 -5.998803 -2.930466 8.971505 2.696140 -3.151262 -15.072483 -11.222133 3.758779 44.712562 -4.652730 2.912280 -9.362710 -24.877467 -31.134730 6.005130 -28.929063 -31.740120 3.024431 -0.583165 -17.656225 -0.184141 -3.645928 2.922335 0.311140 -0.079510 0.195030 0.032400 19.220262 32.155812 10.433113 35.105869 19.908849 2.312200 4.126787 10.187720 0.158841 2.560264 -1.213489 0.013150 0.047210 -0.148740 -0.180320 
3.323460 17.799010 -7.595630 -0.370308 -3.568206 -0.200129 -14.979336 13.263562 2.501569 10.840161 -2.956972 -21.696876 -0.216788 5.573394 24.737271 -0.295077 4.205385 2.895676 0.412030 0.287290 0.417740 18.490294 -9.554985 4.694000 -8.837020 8.810256 -42.758433 10.018342 -15.748630 55.623580 -1.288008 -9.013917 1.114123 0.187210 -0.148860 0.112730 -4.084055 -2.734487 -8.543809 14.887542 -6.622948 25.032539 -5.861034 -2.436449 7.609867 2.337240 -3.105071 -13.766314 -10.656099 2.801043 43.226995 -3.675450 1.810100 -8.765350 -24.292964 -27.662729 4.952157 -27.359170 -27.235858 1.305320 1.833175 -17.253005 -0.704266 -3.669385 2.925392 0.300500 -0.071950 0.161740 0.033170 19.377975 28.674792 10.424740 35.954651 15.798535 1.912608 5.504671 7.040998 0.161804 2.613706 -1.210469 -0.002080 0.052060 -0.126910 -0.168900 
3.315750 17.875830 -7.583400 1.099474 -1.215848 -0.719041 -15.013451 13.327858 2.552236 8.275588 -3.306274 -20.028744 -0.918080 6.096573 27.753759 -0.184130 4.633914 2.764294 0.396360 0.276700 0.391780 18.440970 -9.678526 4.553423 -5.769243 8.806049 -41.139147 9.698754 -14.168732 52.629633 -1.137064 -8.251899 1.372571 0.169150 -0.146040 0.104580 -3.993275 -2.683318 -8.453167 13.351603 -6.104316 25.903614 -5.533367 -2.180782 6.483343 1.915915 -3.129950 -12.553049 -10.294579 1.360750 41.247980 -3.382060 0.458570 -9.475170 -23.583365 -23.926107 3.890857 -23.912988 -22.890078 -0.759466 3.454197 -19.120203 -0.966278 -3.649109 2.928552 0.291170 -0.081480 0.156030 0.037600 19.553391 24.925550 10.409465 36.187390 10.803508 0.514526 6.087193 6.595627 0.072655 2.619324 -1.213691 0.007050 0.052990 -0.125060 -0.152720 
3.281500 17.911980 -7.565190 2.724569 1.629205 -1.433321 -15.115897 13.393428 2.744439 6.366937 -4.162199 -18.495828 -1.876031 7.346975 33.963648 0.040585 5.780776 2.381908 0.359210 0.222640 0.376720 18.337550 -9.697249 4.343586 -2.042717 8.584399 -39.334615 7.953194 -11.846500 49.160217 -0.925157 -7.239143 1.710833 0.138530 -0.134220 0.101610 -3.739823 -2.882648 -8.448812 10.439352 -5.605025 27.107949 -4.270548 -2.326754 5.401165 1.528312 -2.543929 -11.637439 -8.951371 0.168745 40.127475 -3.519440 -0.143410 -9.138910 -23.232144 -20.419300 3.219014 -19.981997 -18.292231 -2.425935 5.231316 -20.450904 -1.201310 -3.653093 2.922809 0.289440 -0.074950 0.139060 0.028410 20.107043 21.051728 10.040849 35.302281 5.824632 -0.932476 7.257976 6.187811 -0.039316 2.622671 -1.202204 -0.006560 0.048970 -0.111040 -0.156540 
3.248400 17.904990 -7.551270 3.569415 4.569410 -1.433995 -15.210123 13.234075 3.002874 5.906684 -5.408048 -17.698592 -3.952717 9.483381 40.828952 0.379464 7.313892 1.873975 0.350090 0.213480 0.371730 18.281256 -9.620641 4.158023 1.120195 8.401796 -37.808300 7.440290 -10.099164 44.517871 -0.720838 -6.197328 2.063787 0.133680 -0.132180 0.101990 -3.571048 -2.895995 -8.484887 8.745734 -4.895760 26.861124 -3.153486 -2.102089 5.311193 1.258060 -1.599607 -10.743265 -6.931615 -1.796478 38.545529 -3.907560 -1.224930 -8.773570 -21.484611 -16.939977 2.500223 -16.926465 -15.137519 -3.173187 6.405934 -22.241099 -1.264694 -3.651304 2.934656 0.262230 -0.064620 0.126430 0.032760 18.948958 17.006131 9.497475 34.966348 1.086221 -2.188192 9.083933 5.509145 -0.266608 2.631781 -1.219226 -0.001250 0.036030 -0.120370 -0.149450 
3.254350 17.867750 -7.542650 4.350084 7.340887 -1.409980 -15.298891 13.034590 3.316411 5.458746 -6.946483 -16.655092 -6.409572 12.159297 47.668067 0.771280 9.033876 1.340363 0.340380 0.193570 0.373340 18.241123 -9.496115 3.946274 3.607328 7.967708 -36.424426 6.666876 -8.429132 39.595373 -0.518217 -5.139849 2.428061 0.134070 -0.119270 0.100490 -3.423587 -2.970923 -8.531460 7.442021 -4.842145 26.744559 -2.352209 -2.434107 5.385853 1.076579 -1.017882 -10.045931 -5.568383 -3.008131 36.786674 -4.060960 -1.913090 -9.197280 -19.990947 -13.560097 2.033597 -13.852505 -11.048701 -3.846364 8.619910 -24.126666 -1.583799 -3.646496 2.940983 0.261280 -0.054680 0.112360 0.030730 17.866966 13.236806 8.732949 33.595597 -2.707433 -3.142314 9.831548 4.147103 -0.529972 2.637115 -1.202170 -0.018190 0.045920 -0.114890 -0.155500 
3.273750 17.797350 -7.528530 5.701274 10.206559 -1.119708 -15.380770 12.872071 3.555933 4.341113 -8.103031 -14.661612 -8.836328 14.724822 52.380325 1.127979 10.409526 0.956181 0.320390 0.175170 0.342380 18.205559 -9.387434 3.762778 5.042175 7.393794 -35.706100 5.815551 -7.111250 35.461144 -0.341301 -4.315851 2.723924 0.141540 -0.075220 0.097830 -3.287579 -3.062983 -8.540756 5.875058 -4.647580 25.813638 -1.687569 -2.780733 5.875967 0.699280 -0.707194 -9.341708 -4.855057 -4.044966 35.143852 -3.706170 -2.988000 -9.092360 -18.363072 -10.323533 1.337170 -10.240618 -8.044960 -3.802609 9.142804 -25.496766 -1.504906 -3.670527 2.958963 0.237080 -0.024390 0.075640 0.032860 17.052484 9.694302 8.043799 31.983739 -6.751769 -4.049516 10.132620 3.294695 -0.809354 2.617023 -1.185956 -0.035980 0.067360 -0.092120 -0.146320 
